<svg width="48" height="47" viewBox="0 0 48 47" fill="none" xmlns="http://www.w3.org/2000/svg">
<path d="M1.5 43.1364C1.5 34.5007 8.50067 27.5 17.1364 27.5H18.8636C27.4993 27.5 34.5 34.5007 34.5 43.1364C34.5 43.6134 34.1134 44 33.6364 44H2.36357C1.88663 44 1.5 43.6134 1.5 43.1364Z" fill="#8C69FF"/>
<path d="M26.25 16.5872C26.25 21.3297 22.5563 27.5 18 27.5C13.4437 27.5 9.75 21.3297 9.75 16.5872C9.75 11.8446 13.4437 8 18 8C22.5563 8 26.25 11.8446 26.25 16.5872Z" fill="#8C69FF"/>
<path fill-rule="evenodd" clip-rule="evenodd" d="M29.25 6.5C28.0074 6.5 27 7.50736 27 8.75V19.6339C27 20.8765 28.0074 21.8839 29.25 21.8839H29.55C29.7985 21.8839 30 22.0854 30 22.3339V24.0451C30 24.4184 30.4284 24.6294 30.7244 24.4017L33.8764 21.9772C33.9551 21.9167 34.0515 21.8839 34.1508 21.8839H44.25C45.4926 21.8839 46.5 20.8765 46.5 19.6339V8.75C46.5 7.50736 45.4926 6.5 44.25 6.5H29.25Z" fill="#8C69FF"/>
<rect x="31.5" y="11" width="10.5" height="1.5" rx="0.75" fill="#F1EDFF"/>
<rect x="31.5" y="15.5" width="6" height="1.5" rx="0.75" fill="#F1EDFF"/>
</svg>
