<svg width="72" height="72" viewBox="0 0 72 72" fill="none" xmlns="http://www.w3.org/2000/svg">
<rect width="72" height="72" rx="12" fill="#F1EDFF" fill-opacity="0.5"/>
<rect x="16.7988" y="12.0723" width="39.2016" height="50.2635" rx="1" fill="url(#paint0_linear_1554_31153)"/>
<rect x="21.9004" y="17.7891" width="31.2712" height="39.5814" rx="0.4" fill="url(#paint1_linear_1554_31153)"/>
<rect x="20.0352" y="15.5312" width="31.2712" height="39.5814" rx="0.4" fill="url(#paint2_linear_1554_31153)"/>
<path d="M45.2854 21.4629H37.541V26.7206H45.2854V21.4629Z" stroke="#8B70E8" stroke-width="0.5" stroke-miterlimit="1.5" stroke-linecap="round" stroke-linejoin="round"/>
<path d="M24.4863 33.4849L46.8591 33.457" stroke="#8B70E8" stroke-width="0.6" stroke-miterlimit="2.992" stroke-linecap="round" stroke-linejoin="round"/>
<path d="M24.4863 40.1177L46.8591 40.0898" stroke="#8B70E8" stroke-width="0.6" stroke-miterlimit="2.992" stroke-linecap="round" stroke-linejoin="round"/>
<path d="M24.4863 46.8443L46.8591 46.8164" stroke="#8B70E8" stroke-width="0.6" stroke-miterlimit="2.992" stroke-linecap="round" stroke-linejoin="round"/>
<path fill-rule="evenodd" clip-rule="evenodd" d="M45.2667 12.1436C44.7644 10.8843 43.531 10.0606 42.1641 10.0664C39.0616 10.0782 33.5303 10.1017 30.396 10.1135C28.9973 10.1194 27.7512 10.9903 27.2807 12.2966C26.7651 13.7366 26.1262 15.5191 25.8129 16.3932C25.7195 16.6538 25.9129 16.9275 26.1897 16.9275H46.5827C46.8658 16.9275 47.0598 16.6424 46.9546 16.3796C46.5916 15.4728 45.8486 13.6141 45.2667 12.1436Z" fill="url(#paint3_linear_1554_31153)"/>
<defs>
<linearGradient id="paint0_linear_1554_31153" x1="36.3996" y1="12.0723" x2="36.3996" y2="62.3357" gradientUnits="userSpaceOnUse">
<stop stop-color="#DBD7FF"/>
<stop offset="1" stop-color="#8B70E8"/>
</linearGradient>
<linearGradient id="paint1_linear_1554_31153" x1="42.5718" y1="21.606" x2="53.7873" y2="59.2984" gradientUnits="userSpaceOnUse">
<stop stop-color="#8B70E8"/>
<stop offset="1" stop-color="white"/>
</linearGradient>
<linearGradient id="paint2_linear_1554_31153" x1="35.6708" y1="15.5312" x2="35.6708" y2="55.1126" gradientUnits="userSpaceOnUse">
<stop stop-color="#DBD7FF"/>
<stop offset="1" stop-color="white"/>
</linearGradient>
<linearGradient id="paint3_linear_1554_31153" x1="34.5015" y1="9.3687" x2="33.7165" y2="20.358" gradientUnits="userSpaceOnUse">
<stop stop-color="#8B70E8"/>
<stop offset="1" stop-color="#DBD7FF"/>
</linearGradient>
</defs>
</svg>
