<svg width="72" height="72" viewBox="0 0 72 72" fill="none" xmlns="http://www.w3.org/2000/svg">
<circle cx="36" cy="36" r="36" fill="#8C69FF"/>
<path fill-rule="evenodd" clip-rule="evenodd" d="M37.768 51.0294C45.6694 50.3277 51.8642 43.6907 51.8642 35.6069C51.8642 27.0554 44.9318 20.123 36.3804 20.123C27.8288 20.123 20.8965 27.0554 20.8965 35.6069C20.8965 43.1133 26.2379 49.372 33.3272 50.7899V39.6141H29.6062V35.1407H33.3272V31.8403C33.3272 28.0109 35.5753 25.9295 38.8644 25.9295C40.437 25.9295 41.7881 26.0445 42.1868 26.102V30.1154H39.9054C38.1115 30.1154 37.768 30.9894 37.768 32.2888V35.1407H42.0318L41.4781 39.6141H37.768V51.0294Z" fill="white"/>
</svg>
