<?xml version="1.0" encoding="UTF-8"?>
<svg id="Layer_2" data-name="Layer 2" xmlns="http://www.w3.org/2000/svg" xmlns:xlink="http://www.w3.org/1999/xlink" viewBox="0 0 108.2 24.26">
  <defs>
    <style>
      .cls-1 {
        letter-spacing: -.02em;
      }

      .cls-2 {
        font-size: 14.02px;
      }

      .cls-2, .cls-3 {
        font-family: ProximaSoft-Semibold, 'Proxima Soft';
        font-weight: 600;
      }

      .cls-2, .cls-4 {
        fill: #fff;
      }

      .cls-5 {
        letter-spacing: -.02em;
      }

      .cls-6 {
        letter-spacing: -.02em;
      }

      .cls-7 {
        letter-spacing: -.03em;
      }

      .cls-8 {
        fill: url(#radial-gradient);
      }

      .cls-8, .cls-9, .cls-10, .cls-11, .cls-4, .cls-12, .cls-13 {
        stroke-width: 0px;
      }

      .cls-14 {
        letter-spacing: -.13em;
      }

      .cls-3 {
        font-size: 5.96px;
      }

      .cls-3, .cls-13 {
        fill: #eeefef;
      }

      .cls-9 {
        fill: url(#radial-gradient-2);
      }

      .cls-15 {
        letter-spacing: -.05em;
      }

      .cls-16 {
        letter-spacing: -.13em;
      }

      .cls-10 {
        fill: #4c205b;
      }

      .cls-11 {
        fill: #813488;
      }

      .cls-12 {
        fill: #fbb316;
      }
    </style>
    <radialGradient id="radial-gradient" cx="-9028" cy="3171.9" fx="-9028" fy="3171.9" r="8.18" gradientTransform="translate(-4063.76 -9008.65) rotate(-90) scale(1 1.28)" gradientUnits="userSpaceOnUse">
      <stop offset=".82" stop-color="#d9dbdc"/>
      <stop offset=".89" stop-color="#eeefef"/>
    </radialGradient>
    <radialGradient id="radial-gradient-2" cx="10378.34" cy="-1564.66" fx="10378.34" fy="-1564.66" r="8.18" gradientTransform="translate(-2001.15 -10381.16) rotate(90) scale(1 1.28)" gradientUnits="userSpaceOnUse">
      <stop offset=".82" stop-color="#f3f4f4"/>
      <stop offset=".89" stop-color="#eeefef"/>
    </radialGradient>
  </defs>
  <g id="Layer_1-2" data-name="Layer 1">
    <g>
      <text class="cls-3" transform="translate(0 22.27)"><tspan class="cls-1" x="0" y="0">Instant </tspan><tspan class="cls-15" x="18.67" y="0">B</tspan><tspan class="cls-16" x="22.24" y="0">Y</tspan><tspan class="cls-1" x="25.22" y="0">JU&apos;S Aptitude &amp; Scholarship </tspan><tspan class="cls-14" x="97.71" y="0">T</tspan><tspan class="cls-5" x="100.41" y="0">est</tspan></text>
      <g>
        <g>
          <rect class="cls-13" y="1.62" width="13.28" height="13.28" rx="1.29" ry="1.29"/>
          <path class="cls-8" d="M1.29,14.9c-.71,0-1.29-.58-1.29-1.29v-4.35c0-.42.34-.77.77-.77h11.74c.42,0,.77.34.77.77v4.35c0,.71-.58,1.29-1.29,1.29H1.29Z"/>
          <path class="cls-9" d="M11.99,1.62c.71,0,1.29.58,1.29,1.29v4.35c0,.42-.34.77-.77.77H.77c-.42,0-.77-.34-.77-.77V2.91c0-.71.58-1.29,1.29-1.29h10.7Z"/>
          <rect class="cls-13" x=".43" y="2.05" width="12.43" height="12.43" rx=".84" ry=".84"/>
          <path class="cls-10" d="M8.6,11.69h0s-2.58.74-2.58.74c-.22.06-.45-.06-.51-.28l-1.95-6.76c-.06-.22.06-.45.28-.51l2.67-.77c.62-.18,1.29,0,1.71.48.79.89.6,2.05-.12,2.67.93.05,1.77.68,2.04,1.63.35,1.2-.35,2.46-1.55,2.8Z"/>
          <path class="cls-11" d="M8.98,6.94c.39-.76.37-1.74-.28-2.57-.5-.64-1.56-.96-2.33-.74l-2.74.79c-.44.13-.69.58-.56,1.02l2,6.93c.13.44.58.69,1.02.56l2.76-.8c.92-.27,1.78-1.26,1.89-2.22.16-1.44-.65-2.55-1.74-2.98ZM8.6,11.69h0s-2.58.74-2.58.74c-.22.06-.45-.06-.51-.28l-1.95-6.76c-.06-.22.06-.45.28-.51l2.67-.77c.61-.18,1.28,0,1.71.48.8.89.61,2.05-.12,2.67.93.05,1.77.68,2.04,1.63.35,1.2-.35,2.46-1.55,2.8Z"/>
          <path class="cls-11" d="M9.41,9.88c0-1.15-.92-2.07-2.07-2.09.69-.6.88-1.7.14-2.56-.41-.48-1.07-.66-1.68-.49l-2.23.64,1.95,6.75c.06.22.29.34.51.28l1.83-.53s.02,0,.03,0c.88-.25,1.53-1.05,1.53-2.01Z"/>
        </g>
        <g>
          <path class="cls-13" d="M42.14,13.08c-2.24,0-3.54-1.35-3.54-4.03v-4.54c0-.66.37-1.06.92-1.06s.92.39.92,1.06v4.4c0,1.81.59,2.38,1.71,2.38s1.71-.57,1.71-2.38v-4.4c0-.66.38-1.06.92-1.06s.92.39.92,1.06v4.54c0,2.69-1.3,4.03-3.54,4.03ZM21.58,7.99c.76-.5,1.16-1.18,1.16-1.99,0-1.58-1.11-2.7-3.35-2.7h-2.55c-.55,0-.92.36-.92.9v8.02c0,.53.37.9.92.9l2.53.03c2.9.03,3.86-1.22,3.86-2.75,0-1.09-.62-1.96-1.65-2.38,0,0-.01,0-.01-.02,0-.01.01-.02.01-.02ZM27.68,7.4l-2.05-3.41c-.2-.33-.42-.55-.81-.55-.52,0-.93.36-.93.83,0,.29.09.51.24.75l2.63,4.22v2.83c0,.66.42,1.06.9,1.06.55,0,.93-.39.93-1.06v-2.83l2.63-4.22c.15-.24.24-.46.24-.75,0-.47-.41-.83-.93-.83-.39,0-.61.22-.81.55l-2.05,3.41ZM47.67,6.82c.22,0,.48-.11.64-.45.24-.52.48-1.51.48-1.96,0-.61-.28-.99-.94-.99-.67.03-.95.46-.95,1.26v.73c0,.9.25,1.41.78,1.41ZM30.65,10.56c0,.88.78,2.53,2.91,2.53s3.18-1.26,3.18-3.52v-5.06c0-.66-.38-1.06-.92-1.06-.57,0-.92.39-.92,1.06v5.1c0,1.16-.39,1.71-1.3,1.72-1.54.03-.88-1.6-1.97-1.69-.48-.04-.99.28-.99.93ZM19.99,7.14c-.6.11-.98.36-.98.93s.37.9.97.98c1.03.11,1.39.47,1.39,1.26,0,.73-.6,1.12-1.74,1.12h-1.87v-6.44h2.02c.76,0,1.15.46,1.15,1.15,0,.6-.36.9-.93,1.01ZM51.08,10.65c-.23-.27-.52-.53-.85-.53-.41,0-.87.25-.87.9,0,.24.11.55.34.81.62.76,1.65,1.39,3.1,1.39,1.72,0,3.16-.97,3.16-2.7,0-3.37-4.48-3.04-4.48-4.54,0-.59.39-.92,1.06-.92.51,0,.92.13,1.21.37.33.25.59.75,1.13.75.46,0,.87-.31.87-.76,0-.66-.66-1.29-1.23-1.62-.48-.28-1.12-.5-1.99-.5-1.45.03-2.88.81-2.88,2.7,0,3.04,4.48,2.51,4.48,4.42,0,.69-.53,1.03-1.34,1.03-.71,0-1.22-.32-1.72-.8Z"/>
          <g>
            <path class="cls-4" d="M39.52,3.62c.53,0,.92.39.92,1.06v-.17c0-.66-.38-1.06-.92-1.06s-.92.39-.92,1.06v.17c0-.66.37-1.06.92-1.06Z"/>
            <path class="cls-4" d="M40.44,9.08c0,1.81.59,2.38,1.71,2.38s1.71-.57,1.71-2.38v-.17c0,1.81-.59,2.38-1.71,2.38s-1.71-.57-1.71-2.38v.17Z"/>
            <path class="cls-4" d="M51.49,6.05s0,.06,0,.1c0,1.49,4.39,1.18,4.48,4.45,0-.03,0-.05,0-.08,0-3.31-4.33-3.05-4.48-4.47Z"/>
            <path class="cls-4" d="M24.81,3.62c.39,0,.61.22.81.55l2.05,3.41,2.05-3.41c.2-.33.42-.55.81-.55.49,0,.89.32.93.76,0-.03,0-.07,0-.1,0-.47-.41-.83-.93-.83-.39,0-.61.22-.81.55l-2.05,3.41-2.05-3.41c-.2-.33-.42-.55-.81-.55-.52,0-.93.36-.93.83,0,.03,0,.07,0,.1.04-.43.43-.76.93-.76Z"/>
            <path class="cls-4" d="M50.23,10.29c.33,0,.62.27.85.53.5.48,1.01.8,1.72.8.8,0,1.34-.34,1.34-1.03,0-.03,0-.06,0-.09-.04.63-.56.95-1.33.95-.71,0-1.22-.32-1.72-.8-.23-.27-.52-.53-.85-.53-.41,0-.87.25-.87.9,0,.02,0,.05,0,.07.04-.58.47-.81.86-.81Z"/>
            <path class="cls-4" d="M52.53,3.48c.87,0,1.5.22,1.99.5.55.32,1.18.9,1.23,1.53,0-.03,0-.06,0-.09,0-.66-.66-1.29-1.23-1.62-.48-.28-1.12-.5-1.99-.5-1.45.03-2.88.81-2.88,2.7,0,.03,0,.06,0,.09.04-1.82,1.45-2.59,2.87-2.61Z"/>
            <path class="cls-4" d="M30.65,10.56s0,.07,0,.1c.04-.6.52-.89.99-.86,1.09.09.43,1.72,1.97,1.69.9-.01,1.3-.56,1.3-1.72v-.17c0,1.16-.39,1.71-1.3,1.72-1.54.03-.88-1.6-1.97-1.69-.48-.04-.99.28-.99.93Z"/>
            <path class="cls-4" d="M44.77,3.45c-.53,0-.92.39-.92,1.06v.17c0-.66.38-1.06.92-1.06s.92.39.92,1.06v-.17c0-.66-.37-1.06-.92-1.06Z"/>
            <path class="cls-4" d="M47.85,3.42c-.67.03-.95.46-.95,1.26v.17c0-.8.28-1.23.95-1.26.63,0,.91.35.94.91,0-.03,0-.06,0-.08,0-.61-.28-.99-.94-.99Z"/>
            <path class="cls-4" d="M35.83,3.45c-.57,0-.92.39-.92,1.06v.17c0-.66.34-1.06.92-1.06.53,0,.92.39.92,1.06v-.17c0-.66-.38-1.06-.92-1.06Z"/>
            <path class="cls-4" d="M16.84,3.48h2.55c2.19,0,3.3,1.07,3.34,2.6,0-.02,0-.05,0-.07,0-1.58-1.11-2.7-3.35-2.7h-2.55c-.55,0-.92.36-.92.9v.17c0-.55.37-.9.92-.9Z"/>
            <path class="cls-4" d="M19.99,7.14c-.6.11-.98.36-.98.93,0,.03,0,.06,0,.09.04-.51.41-.74.98-.85.57-.1.93-.41.93-1.01,0-.03,0-.06,0-.09-.03.54-.38.83-.93.92Z"/>
            <path class="cls-4" d="M19.62,11.6c1.15,0,1.74-.39,1.74-1.12,0-.04,0-.07,0-.11-.03.69-.63,1.06-1.74,1.06h-1.87v.17h1.87Z"/>
          </g>
          <path class="cls-4" d="M21.58,8.03s-.01,0-.01-.02c0-.01.01-.02.01-.02,0,0,0,0,0,0-.02.02-.07.05-.1.08-.03.03-.03.08.01.09l.09.04c1.01.41,1.63,1.25,1.65,2.32,0-.04,0-.07,0-.11,0-.28-.05-.56-.13-.82-.23-.7-.77-1.25-1.53-1.56Z"/>
        </g>
      </g>
      <g>
        <path class="cls-12" d="M106.73,0h-50.08l1.22,1.75c1,1.43,1.52,3.07,1.52,4.75v7.18c0,.71.65,1.29,1.46,1.29h45.88c.81,0,1.46-.58,1.46-1.29V1.29c0-.71-.65-1.29-1.46-1.29Z"/>
        <text class="cls-2" transform="translate(63.51 12.28)"><tspan class="cls-6" x="0" y="0">I-B</tspan><tspan class="cls-7" x="16.09" y="0">AS</tspan><tspan class="cls-6" x="33.01" y="0">T</tspan></text>
      </g>
    </g>
  </g>
</svg>