<svg width="72" height="72" viewBox="0 0 72 72" fill="none" xmlns="http://www.w3.org/2000/svg">
<rect width="72" height="72" rx="12" fill="#F1EDFF" fill-opacity="0.5"/>
<path d="M55.2038 50.449L40.1783 58.4856C39.175 59.0159 37.8071 58.6096 37.1199 57.5642L16.2268 25.8016C15.1525 24.3364 16.4551 22.8714 17.4563 22.3353L31.8206 14.9026C32.8239 14.3723 34.1902 14.7792 34.879 15.8241L56.8092 47.144C57.4968 48.1909 57.1993 49.3972 55.2038 50.449Z" fill="#755AD5"/>
<path d="M56.1455 49.6602L41.1233 57.6956C40.1199 58.226 38.7531 57.8176 38.0659 56.7722L17.168 25.0114C16.4809 23.966 16.7351 22.6852 17.7363 22.149L32.7618 14.1124C33.7651 13.5821 35.1336 13.9899 35.8207 15.0353L56.7138 46.7978C57.4026 47.8427 57.1467 49.124 56.1455 49.6602Z" fill="url(#paint0_linear_1554_31139)"/>
<path d="M54.7166 45.4991L37.7545 54.5709L18.7389 25.6623L35.6988 16.5896L54.7166 45.4991Z" fill="#F4F3FF"/>
<path d="M48.8819 42.1901L47.9082 48.3223L48.0739 48.3358L49.0476 42.2036L48.8819 42.1901Z" fill="white"/>
<path d="M49.3358 39.3599L49.0332 41.2656L49.1989 41.2792L49.5015 39.3734L49.3358 39.3599Z" fill="white"/>
<path d="M28.6884 18.5502L24.0006 21.0507C23.8974 21.0944 23.7828 21.1013 23.6793 21.0701C23.5758 21.0389 23.4911 20.9718 23.4419 20.8822C23.411 20.8464 23.3883 20.8049 23.3752 20.7599C23.3621 20.715 23.3588 20.6675 23.3655 20.6203C23.3722 20.573 23.3888 20.5269 23.4143 20.4845C23.4399 20.4422 23.4738 20.4044 23.5142 20.3734L23.5429 20.3531L28.2318 17.8653C28.3349 17.8216 28.4496 17.8147 28.5531 17.8459C28.6566 17.8772 28.7413 17.9442 28.7905 18.0338C28.8502 18.108 28.8743 18.203 28.8576 18.298C28.8408 18.3931 28.7846 18.4803 28.7012 18.5406L28.6884 18.5502Z" fill="#F0EEFD"/>
<path d="M48.2179 50.892C47.8686 50.3625 47.1744 50.1513 46.6746 50.4212C46.1748 50.6911 46.039 51.3427 46.381 51.8749C46.723 52.4071 47.4246 52.6157 47.9244 52.3458C48.4241 52.0759 48.5648 51.4225 48.2179 50.892Z" fill="white"/>
<path d="M44.1272 36.9997C44.9941 32.987 42.4603 29.0504 38.4678 28.2069C34.4753 27.3634 30.5361 29.9326 29.6692 33.9453C28.8023 37.958 31.3361 41.8947 35.3286 42.7382C39.3211 43.5816 43.2603 41.0124 44.1272 36.9997Z" fill="#DBD7FF"/>
<path d="M41.9936 36.5541L39.485 36.6947L38.925 35.8246C38.9838 35.3312 38.9348 34.8316 38.7816 34.3606C38.8589 34.3419 38.9327 34.3101 38.9996 34.2667C39.2267 34.1186 38.9183 33.3213 38.6193 32.8031C38.5238 32.0717 37.9532 31.9791 37.9532 31.9791C37.9532 31.9791 38.0064 31.7327 37.7205 31.0703C37.4345 30.4079 37.1476 30.9493 36.4465 30.629C35.7453 30.3086 35.1118 29.8752 33.9671 30.6218C33.645 30.8171 33.3882 31.1048 33.2302 31.4475C33.0723 31.7901 33.0203 32.1719 33.0812 32.5431C32.7969 32.73 32.5343 32.9483 32.2984 33.194C32.0118 33.5212 32.6502 34.7314 33.2375 34.9856C33.5289 35.1438 33.7767 35.3717 33.9592 35.6491C33.8172 35.6037 33.7178 35.6317 33.8142 35.8817C34.0355 36.4437 34.8829 36.8803 34.8829 36.8803L35.0512 36.6877C35.4316 37.0498 35.8896 37.3199 36.3906 37.4775L36.9507 38.3476L35.798 40.5948C35.6636 40.8576 35.6002 41.1508 35.6142 41.4449C35.6281 41.7391 35.7189 42.0239 35.8775 42.2707L36.2655 42.8735C37.8953 43.0039 39.5257 42.5879 40.9015 41.6906C42.2773 40.7934 43.3208 39.4654 43.8685 37.9148L43.4806 37.312C43.3219 37.0652 43.1008 36.8651 42.8398 36.7321C42.5787 36.599 42.2868 36.5376 41.9936 36.5541Z" fill="#8B70E8"/>
<defs>
<linearGradient id="paint0_linear_1554_31139" x1="29.4382" y1="15.3065" x2="44.4732" y2="56.4919" gradientUnits="userSpaceOnUse">
<stop offset="0.0601633" stop-color="#8A70E8"/>
<stop offset="0.35832" stop-color="#B5AEFC"/>
<stop offset="0.973463" stop-color="#8B71E8"/>
</linearGradient>
</defs>
</svg>
