<svg width="48" height="48" viewBox="0 0 48 48" fill="none" xmlns="http://www.w3.org/2000/svg">
<path fill-rule="evenodd" clip-rule="evenodd" d="M16.5 4.5C14.8431 4.5 13.5 5.84315 13.5 7.5V40.5C13.5 42.1569 14.8431 43.5 16.5 43.5H42C43.6569 43.5 45 42.1569 45 40.5V13.5L36 4.5H16.5Z" fill="#8C69FF"/>
<circle cx="16.5" cy="22.5" r="7.5" fill="#D9D9D9"/>
<path d="M10.5 30.75C10.5 30.3358 10.8358 30 11.25 30H18.75C19.1642 30 19.5 30.3358 19.5 30.75V39.2865C19.5 39.844 18.9133 40.2066 18.4146 39.9573L15.3354 38.4177C15.1243 38.3121 14.8757 38.3121 14.6646 38.4177L11.5854 39.9573C11.0867 40.2066 10.5 39.844 10.5 39.2865V30.75Z" fill="#8C69FF" stroke="#F1EDFF" stroke-width="1.5"/>
<path d="M36 4.5L40.5 9L45 13.5H39C37.3431 13.5 36 12.1569 36 10.5V4.5Z" fill="#8C69FF" stroke="#F1EDFF" stroke-width="1.5"/>
<rect x="31.5" y="19.5" width="9" height="3" rx="1.5" fill="#F1EDFF"/>
<rect x="31.5" y="28.5" width="9" height="3" rx="1.5" fill="#F1EDFF"/>
<path d="M12.8734 10.7862C13.8716 9.24371 16.1284 9.24371 17.1266 10.7862C17.778 11.7928 19.046 12.2048 20.1648 11.7733C21.8789 11.1122 23.7048 12.4387 23.6057 14.2733C23.541 15.4706 24.3247 16.5492 25.4834 16.8577C27.2588 17.3304 27.9562 19.4768 26.7977 20.9027C26.0416 21.8334 26.0416 23.1666 26.7977 24.0972C27.9562 25.5232 27.2588 27.6696 25.4834 28.1423C24.3247 28.4508 23.541 29.5294 23.6057 30.7267C23.7048 32.5613 21.8789 33.8878 20.1648 33.2267C19.046 32.7952 17.778 33.2072 17.1266 34.2138C16.1284 35.7563 13.8716 35.7563 12.8734 34.2138C12.222 33.2072 10.954 32.7952 9.83525 33.2267C8.12105 33.8878 6.29524 32.5613 6.39433 30.7267C6.459 29.5294 5.67533 28.4508 4.51665 28.1423C2.74121 27.6696 2.04382 25.5232 3.20234 24.0972C3.95841 23.1666 3.95841 21.8334 3.20234 20.9027C2.04382 19.4768 2.74121 17.3304 4.51665 16.8577C5.67533 16.5492 6.459 15.4706 6.39433 14.2733C6.29524 12.4387 8.12105 11.1122 9.83525 11.7733C10.954 12.2048 12.222 11.7928 12.8734 10.7862Z" fill="#8C69FF" stroke="#F1EDFF" stroke-width="1.5"/>
<circle cx="15" cy="22.5" r="6" fill="#F1EDFF"/>
</svg>
