<svg width="48" height="48" viewBox="0 0 48 48" fill="none" xmlns="http://www.w3.org/2000/svg">
<path d="M3 6C3 4.34315 4.34315 3 6 3H33C34.6569 3 36 4.34315 36 6V42C36 43.6569 34.6569 45 33 45H6C4.34314 45 3 43.6569 3 42V6Z" fill="#8C69FF"/>
<rect width="18" height="3" rx="1.5" transform="matrix(-1 0 0 1 28.5 12)" fill="#F1EDFF"/>
<rect width="8.75049" height="3" rx="1.5" transform="matrix(-1 0 0 1 19.251 21)" fill="#F1EDFF"/>
<circle cx="34.5" cy="33" r="11.25" fill="#8C69FF" stroke="#F1EDFF" stroke-width="1.5"/>
<path fill-rule="evenodd" clip-rule="evenodd" d="M32.0172 35.9728C32.0301 35.9866 32.0433 36.0003 32.0568 36.0138C32.6425 36.5996 33.5923 36.5996 34.1781 36.0138L39.4814 30.7105C40.0672 30.1247 40.0672 29.175 39.4814 28.5892C38.8956 28.0034 37.9458 28.0034 37.3601 28.5892L33.1182 32.8311L31.6407 31.3536C31.055 30.7679 30.1052 30.7679 29.5194 31.3536C28.9336 31.9394 28.9336 32.8892 29.5194 33.475L32.0172 35.9728Z" fill="#F1EDFF"/>
</svg>
