<svg width="48" height="48" viewBox="0 0 48 48" fill="none" xmlns="http://www.w3.org/2000/svg">
<path d="M6 6C6 4.34315 7.34315 3 9 3H39C40.6569 3 42 4.34315 42 6V42C42 43.6569 40.6569 45 39 45H9C7.34315 45 6 43.6569 6 42V6Z" fill="#8C69FF"/>
<path fill-rule="evenodd" clip-rule="evenodd" d="M22.2 21L25.8001 21C26.46 21 27 21.5521 27 22.2268L27 37.7732C27 38.4479 26.46 39 25.8002 39L22.2 39C21.5401 39 21 38.4479 21 37.7732L21 22.2268C21 21.5521 21.5401 21 22.2 21ZM14.7 27L18.3 27C18.96 27 19.5 27.5358 19.5 28.1906L19.5 37.8688C19.5 38.5236 18.96 39.0594 18.3 39.0594L14.7 39.0594C14.04 39.0594 13.5 38.5236 13.5 37.8688L13.5 28.1906C13.5 27.5358 14.04 27 14.7 27ZM33.3 24L29.7 24C29.04 24 28.5 24.551 28.5 25.2244L28.5 37.7756C28.5 38.449 29.04 39 29.7 39L33.3 39C33.96 39 34.5 38.449 34.5 37.7756L34.5 25.2244C34.5 24.551 33.96 24 33.3 24Z" fill="#F1EDFF"/>
<path d="M12.2021 22.9054C11.7791 23.2256 11.1875 23.1274 10.8806 22.6861C10.5737 22.2448 10.6678 21.6276 11.0908 21.3074L21.4318 13.481C21.7692 13.2256 22.2271 13.2307 22.5593 13.4936L28.2973 18.0346L32.7715 13.3672C33.141 12.9817 33.7401 12.9818 34.1096 13.3673C34.4791 13.7528 34.4791 14.3778 34.1096 14.7632L29.0519 20.0394C28.7175 20.3882 28.1877 20.4259 27.8109 20.1278L21.9748 15.5091L12.2021 22.9054Z" fill="#F1EDFF"/>
<circle cx="21.9002" cy="14.9012" r="3.2" fill="#F1EDFF"/>
<circle cx="34.7" cy="12.4988" r="3.2" fill="#F1EDFF"/>
<circle cx="12.2996" cy="22.1023" r="3.2" fill="#F1EDFF"/>
<circle cx="12.3007" cy="22.102" r="1.6" fill="#8C69FF"/>
<circle cx="21.8998" cy="14.9008" r="1.6" fill="#8C69FF"/>
<circle cx="34.6996" cy="12.4984" r="1.6" fill="#8C69FF"/>
</svg>
