<svg width="72" height="72" viewBox="0 0 72 72" fill="none" xmlns="http://www.w3.org/2000/svg">
<rect width="72" height="72" rx="12" fill="#F1EDFF" fill-opacity="0.5"/>
<path d="M60 36.8047C60 50.0595 49.2548 60.8047 36 60.8047C22.7452 60.8047 12 50.0595 12 36.8047C12 23.5499 22.7452 12.8047 36 12.8047C49.2548 12.8047 60 23.5499 60 36.8047Z" fill="url(#paint0_linear_1554_31171)"/>
<path fill-rule="evenodd" clip-rule="evenodd" d="M36 57.3177C47.329 57.3177 56.5131 48.1337 56.5131 36.8047C56.5131 25.4756 47.329 16.2916 36 16.2916C24.671 16.2916 15.487 25.4756 15.487 36.8047C15.487 48.1337 24.671 57.3177 36 57.3177ZM36 60.8047C49.2548 60.8047 60 50.0595 60 36.8047C60 23.5499 49.2548 12.8047 36 12.8047C22.7452 12.8047 12 23.5499 12 36.8047C12 50.0595 22.7452 60.8047 36 60.8047Z" fill="url(#paint1_linear_1554_31171)"/>
<path d="M47.8359 28.6879L39.9449 36.8059L32.0539 44.9238L24.1628 36.8059" stroke="#FAFAFA" stroke-width="3" stroke-linecap="round" stroke-linejoin="round"/>
<path d="M44.3294 19.1839L45.2912 19.4576L44.3294 19.1839L43.742 21.2486L42.3627 19.6038C42.1056 19.2972 41.7624 19.0748 41.3775 18.9653L39.3128 18.3779L40.9576 16.9986C41.2642 16.7415 41.4866 16.3983 41.5961 16.0134L42.1835 13.9487L43.5628 15.5935C43.82 15.9001 44.1632 16.1225 44.548 16.232L46.6127 16.8194L44.9679 18.1987C44.6613 18.4559 44.4389 18.7991 44.3294 19.1839Z" fill="#ECE8FF" stroke="#A991F9" stroke-width="2"/>
<path d="M49.5663 14.1074C49.5675 14.1083 49.5688 14.1092 49.57 14.1101C49.5691 14.1113 49.5683 14.1125 49.5674 14.1138C49.5661 14.1129 49.5649 14.112 49.5636 14.1112C49.5645 14.1099 49.5654 14.1087 49.5663 14.1074ZM48.3759 13.8392L48.2106 14.3476L48.3759 13.8392L48.3759 13.8392Z" stroke="#8A6AF5" stroke-width="2"/>
<defs>
<linearGradient id="paint0_linear_1554_31171" x1="25.6676" y1="60.8047" x2="79.2825" y2="-8.09755" gradientUnits="userSpaceOnUse">
<stop stop-color="#7F5CF4"/>
<stop offset="1" stop-color="#D9CDFF"/>
</linearGradient>
<linearGradient id="paint1_linear_1554_31171" x1="6.60167" y1="56.0138" x2="77.7503" y2="6.83051" gradientUnits="userSpaceOnUse">
<stop stop-color="#F9F8FF"/>
<stop offset="1" stop-color="#EEF4FF" stop-opacity="0"/>
</linearGradient>
</defs>
</svg>
