<svg xmlns="http://www.w3.org/2000/svg" xmlns:xlink="http://www.w3.org/1999/xlink" width="198" height="55" viewBox="0 0 198 55">
    <defs>
        <path id="a" d="M0 .075h52.26v52.23H0z"/>
        <path id="c" d="M3.025.041A3.024 3.024 0 0 0 0 3.065v17.127a5.065 5.065 0 0 0 5.067 5.064h42.126a5.065 5.065 0 0 0 5.067-5.064V3.065A3.024 3.024 0 0 0 49.234.041H3.025z"/>
        <path id="e" d="M5.067.075A5.065 5.065 0 0 0 0 5.14v17.127a3.024 3.024 0 0 0 3.025 3.024h46.21a3.024 3.024 0 0 0 3.025-3.024V5.139A5.065 5.065 0 0 0 47.193.075H5.067z"/>
    </defs>
    <g fill="none" fill-rule="evenodd">
        <path fill="#EEEEEF" d="M197.453 1.47l-.691 1.731-.692-1.73h-.464v2.38h.3V1.881l.814 1.968h.084l.813-1.968V3.85h.301V1.47h-.465zm-3.88 0v.28h.67v2.1h.302v-2.1h.67v-.28h-1.642z"/>
        <g transform="translate(0 .103)">
            <mask id="b" fill="#fff">
                <use xlink:href="#a"/>
            </mask>
            <path fill="#EEEEEF" d="M5.067 52.305A5.065 5.065 0 0 1 0 47.24V5.139A5.065 5.065 0 0 1 5.067.075h42.126A5.065 5.065 0 0 1 52.26 5.14v42.102a5.065 5.065 0 0 1-5.067 5.064H5.067z" mask="url(#b)"/>
        </g>
        <g transform="translate(0 27.152)">
            <mask id="d" fill="#fff">
                <use xlink:href="#c"/>
            </mask>
            <path d="M3.025.041A3.024 3.024 0 0 0 0 3.065v17.127a5.065 5.065 0 0 0 5.067 5.064h42.126a5.065 5.065 0 0 0 5.067-5.064V3.065A3.024 3.024 0 0 0 49.234.041H3.025z" mask="url(#d)"/>
        </g>
        <g transform="translate(0 .103)">
            <mask id="f" fill="#fff">
                <use xlink:href="#e"/>
            </mask>
            <path d="M5.067.075A5.065 5.065 0 0 0 0 5.14v17.127a3.024 3.024 0 0 0 3.025 3.024h46.21a3.024 3.024 0 0 0 3.025-3.024V5.139A5.065 5.065 0 0 0 47.193.075H5.067z" mask="url(#f)"/>
        </g>
        <path fill="#EEEEEF" d="M4.968 50.735a3.294 3.294 0 0 1-3.295-3.293V5.143A3.294 3.294 0 0 1 4.968 1.85h42.324a3.294 3.294 0 0 1 3.294 3.293v42.3a3.294 3.294 0 0 1-3.294 3.292H4.968z"/>
        <path fill="#4B205A" d="M33.85 39.76l-10.155 2.929a1.623 1.623 0 0 1-2.009-1.109l-7.682-26.6a1.621 1.621 0 0 1 1.11-2.007L25.62 9.942c2.424-.7 5.068.002 6.746 1.885 3.119 3.5 2.379 8.048-.468 10.492 3.665.214 6.963 2.693 8.04 6.419 1.363 4.723-1.362 9.658-6.089 11.021"/>
        <path fill="#813588" d="M33.85 39.76l-10.155 2.929a1.622 1.622 0 0 1-2.008-1.108L14.004 14.98a1.62 1.62 0 0 1 1.109-2.007l10.524-3.036c2.414-.696 5.042.005 6.717 1.877 3.132 3.502 2.394 8.058-.456 10.505 3.665.214 6.963 2.693 8.04 6.419 1.363 4.723-1.362 9.658-6.089 11.021m1.476-18.671c1.553-2.992 1.462-6.847-1.1-10.106-1.967-2.503-6.127-3.793-9.187-2.91l-10.793 3.113a3.241 3.241 0 0 0-2.217 4.014l7.87 27.249a3.244 3.244 0 0 0 4.016 2.215l10.852-3.13c3.63-1.047 7.018-4.966 7.426-8.72.614-5.65-2.557-10.043-6.867-11.725"/>
        <path fill="#813588" d="M37.013 32.67c0-4.505-3.631-8.16-8.127-8.207 2.724-2.344 3.45-6.68.532-10.054-1.629-1.882-4.225-2.613-6.617-1.923l-8.785 2.534 7.67 26.561a1.622 1.622 0 0 0 2.009 1.108l7.21-2.08.104-.033c3.463-.965 6.004-4.138 6.004-7.906"/>
        <path fill="#EEEEEF" d="M176.38 25.617c-.762-.888-1.735-1.776-2.836-1.776-1.354 0-2.877.845-2.877 3.002 0 .804.38 1.819 1.142 2.707 2.074 2.537 5.501 4.61 10.325 4.61 5.712 0 10.494-3.215 10.494-8.966 0-11.207-14.895-10.107-14.895-15.097 0-1.946 1.312-3.045 3.512-3.045 1.693 0 3.047.423 4.02 1.226 1.1.846 1.947 2.495 3.766 2.495 1.523 0 2.877-1.015 2.877-2.537 0-2.199-2.2-4.271-4.104-5.37-1.608-.931-3.724-1.65-6.6-1.65-4.825.084-9.564 2.706-9.564 8.965 0 10.107 14.895 8.331 14.895 14.675 0 2.283-1.778 3.425-4.443 3.425-2.37 0-4.062-1.057-5.713-2.664zM72.986 13.945c-1.99.38-3.258 1.184-3.258 3.087 0 1.945 1.227 3.003 3.215 3.256 3.428.381 4.613 1.565 4.613 4.187 0 2.41-1.99 3.721-5.798 3.721h-6.22V6.798h6.728c2.54 0 3.809 1.522 3.809 3.806 0 1.988-1.185 3.003-3.09 3.34zm35.469 11.376c0 2.918 2.58 8.415 9.69 8.415 7.023 0 10.578-4.186 10.578-11.714V5.192c0-2.2-1.27-3.51-3.047-3.51-1.904 0-3.046 1.31-3.046 3.51v16.957c0 3.848-1.312 5.667-4.316 5.71-5.12.084-2.92-5.33-6.559-5.625-1.608-.127-3.3.93-3.3 3.087zm56.578-12.433c.72 0 1.608-.38 2.116-1.48.804-1.734 1.608-5.033 1.608-6.513 0-2.03-.931-3.298-3.132-3.298-2.242.084-3.173 1.522-3.173 4.186v2.41c0 3.003.846 4.695 2.581 4.695zm-66.48 1.945L91.742 3.5c-.677-1.099-1.397-1.818-2.708-1.818-1.735 0-3.09 1.184-3.09 2.749 0 .973.297 1.691.805 2.495l8.759 14.04v9.388c0 2.2 1.396 3.51 3.004 3.51 1.82 0 3.089-1.31 3.089-3.51v-9.388l8.759-14.04c.508-.804.804-1.522.804-2.495 0-1.565-1.354-2.749-3.09-2.749-1.31 0-2.03.72-2.707 1.818l-6.813 11.334zm-20.278 1.945c2.539-1.649 3.85-3.932 3.85-6.597 0-5.244-3.68-8.965-11.128-8.965h-8.463c-1.82 0-3.046 1.184-3.046 3.002v26.643c0 1.776 1.227 3.002 3.046 3.002l8.42.085c9.648.084 12.822-4.06 12.822-9.135 0-3.637-2.074-6.512-5.501-7.908 0 0-.039-.017-.039-.058 0-.046.039-.069.039-.069zm68.389 16.916c-7.447 0-11.763-4.483-11.763-13.406V5.191c0-2.199 1.227-3.51 3.046-3.51 1.777 0 3.047 1.311 3.047 3.51v14.632c0 6.005 1.946 7.908 5.67 7.908 3.723 0 5.67-1.903 5.67-7.908V5.191c0-2.199 1.27-3.51 3.047-3.51 1.819 0 3.046 1.311 3.046 3.51v15.097c0 8.923-4.316 13.406-11.763 13.406z"/>
        <path fill="#FEFEFE" d="M137.948 2.249c1.777 0 3.047 1.311 3.047 3.51v-.568c0-2.199-1.27-3.51-3.047-3.51-1.82 0-3.046 1.311-3.046 3.51v.568c0-2.199 1.227-3.51 3.046-3.51M140.995 20.391c0 6.005 1.946 7.908 5.67 7.908s5.67-1.903 5.67-7.908v-.568c0 6.005-1.946 7.908-5.67 7.908s-5.67-1.903-5.67-7.908v.568zM177.747 10.346c-.008.104-.014.21-.014.319 0 4.942 14.61 3.913 14.888 14.781.002-.084.007-.167.007-.252 0-11.016-14.39-10.141-14.88-14.848M89.034 2.249c1.312 0 2.03.719 2.708 1.819L98.554 15.4l6.813-11.333c.677-1.1 1.396-1.819 2.708-1.819 1.646 0 2.947 1.066 3.076 2.512.008-.108.013-.217.013-.331 0-1.565-1.354-2.749-3.09-2.749-1.31 0-2.03.72-2.707 1.818l-6.813 11.334L91.742 3.5c-.677-1.099-1.396-1.818-2.708-1.818-1.735 0-3.09 1.184-3.09 2.749 0 .114.006.223.014.33.13-1.445 1.43-2.511 3.076-2.511M173.544 24.409c1.1 0 2.074.888 2.835 1.776 1.65 1.607 3.343 2.664 5.713 2.664 2.666 0 4.443-1.142 4.443-3.425 0-.106-.005-.209-.013-.31-.132 2.11-1.868 3.167-4.43 3.167-2.37 0-4.063-1.057-5.713-2.664-.761-.888-1.734-1.776-2.835-1.776-1.354 0-2.877.846-2.877 3.002 0 .08.007.165.014.25.144-1.92 1.579-2.684 2.863-2.684M181.203 1.784c2.877 0 4.993.719 6.601 1.65 1.823 1.052 3.912 2.997 4.087 5.09a2.43 2.43 0 0 0 .017-.288c0-2.2-2.2-4.271-4.104-5.37-1.608-.931-3.724-1.65-6.6-1.65-4.825.085-9.564 2.707-9.564 8.965 0 .098.004.192.007.288.14-6.055 4.806-8.602 9.556-8.685M108.456 25.32c0 .108.004.22.011.333.12-1.996 1.742-2.973 3.29-2.851 3.638.296 1.438 5.709 6.558 5.624 3.004-.042 4.316-1.86 4.316-5.709v-.568c0 3.848-1.312 5.667-4.316 5.71-5.12.084-2.92-5.33-6.559-5.625-1.608-.127-3.3.93-3.3 3.087M155.382 1.681c-1.778 0-3.047 1.311-3.047 3.51v.568c0-2.2 1.27-3.51 3.047-3.51 1.819 0 3.046 1.31 3.046 3.51v-.568c0-2.199-1.227-3.51-3.046-3.51M165.627 1.597c-2.243.084-3.174 1.522-3.174 4.186v.568c0-2.664.93-4.102 3.174-4.187 2.092 0 3.035 1.15 3.122 3.009a5.17 5.17 0 0 0 .009-.278c0-2.03-.931-3.298-3.131-3.298M125.677 1.681c-1.904 0-3.046 1.311-3.046 3.51v.568c0-2.2 1.142-3.51 3.046-3.51 1.777 0 3.047 1.31 3.047 3.51v-.568c0-2.199-1.27-3.51-3.047-3.51M62.535 1.784h8.463c7.289 0 10.968 3.566 11.121 8.634.002-.08.007-.157.007-.237 0-5.244-3.68-8.965-11.128-8.965h-8.463c-1.82 0-3.046 1.184-3.046 3.002v.568c0-1.818 1.227-3.002 3.046-3.002M72.987 13.945c-1.989.38-3.258 1.184-3.258 3.087 0 .1.005.197.011.293.12-1.705 1.357-2.45 3.247-2.812 1.904-.338 3.089-1.353 3.089-3.34 0-.101-.006-.198-.01-.295-.107 1.806-1.265 2.745-3.08 3.067M71.76 28.764c3.808 0 5.797-1.31 5.797-3.721 0-.125-.006-.245-.011-.364-.112 2.278-2.089 3.518-5.786 3.518h-6.22v.567h6.22zM78.276 16.905s-.039-.017-.039-.058c0-.046.039-.069.039-.069a.18.18 0 0 0-.297.564l.297.131c3.363 1.37 5.417 4.166 5.494 7.706.003-.122.007-.243.007-.366 0-.933-.151-1.846-.427-2.714-.77-2.34-2.554-4.168-5.074-5.194"/>
        <path fill="#E1E2E3" d="M59.276 40.308c0-.236.086-.438.26-.606a.867.867 0 0 1 .624-.252h7.275a.85.85 0 0 1 .62.264.865.865 0 0 1 .265.635.828.828 0 0 1-.265.619.867.867 0 0 1-.622.255h-2.629v8.594c0 .275-.1.51-.298.705a.996.996 0 0 1-.725.293.946.946 0 0 1-.704-.293.97.97 0 0 1-.286-.705v-8.594h-2.628a.845.845 0 0 1-.63-.264.897.897 0 0 1-.257-.651M69.813 49.924v-9.698a.83.83 0 0 1 .264-.62.922.922 0 0 1 .669-.255.84.84 0 0 1 .615.26.84.84 0 0 1 .26.615v3.447c.308-.363.716-.674 1.225-.932a3.638 3.638 0 0 1 1.671-.388c.87 0 1.525.223 1.968.668.443.446.664 1.086.664 1.922v4.981c0 .242-.088.451-.264.627a.876.876 0 0 1-.643.264.862.862 0 0 1-.64-.264.863.863 0 0 1-.26-.627v-4.33c0-.593-.141-1.014-.425-1.261-.283-.248-.694-.372-1.234-.372-.412 0-.804.105-1.175.314-.372.209-.667.464-.888.767v4.882c0 .242-.087.451-.263.627a.877.877 0 0 1-.644.264.863.863 0 0 1-.64-.264.862.862 0 0 1-.26-.627M80.797 45.974h4.53a2.156 2.156 0 0 0-.148-.689 2.277 2.277 0 0 0-.392-.643 1.841 1.841 0 0 0-.706-.493 2.594 2.594 0 0 0-1.015-.188c-.682 0-1.218.206-1.609.617-.39.41-.61.876-.66 1.396m-1.873.651c0-.78.174-1.497.524-2.148a3.954 3.954 0 0 1 1.48-1.55 4.08 4.08 0 0 1 2.138-.574c.94 0 1.745.262 2.414.784.668.522 1.129 1.229 1.382 2.12.137.467.206.83.206 1.088a.84.84 0 0 1-.26.614.85.85 0 0 1-.623.26h-5.372c.06.596.32 1.094.78 1.495.46.4 1.055.6 1.787.6.654 0 1.265-.137 1.832-.41a.922.922 0 0 1 .371-.077.76.76 0 0 1 .524.215.686.686 0 0 1 .235.528c0 .22-.113.42-.338.602a2.524 2.524 0 0 1-.846.429c-.338.104-.68.184-1.023.239a6.002 6.002 0 0 1-.937.082c-1.238 0-2.26-.397-3.065-1.192-.806-.794-1.21-1.83-1.21-3.105M93.224 49.504v-9.18c0-.263.098-.492.293-.684a.988.988 0 0 1 .722-.289c.27 0 .504.098.702.293a.926.926 0 0 1 .297.68v8.619h4.175c.237 0 .442.084.615.252.174.167.26.37.26.605a.891.891 0 0 1-.26.652.835.835 0 0 1-.615.264h-4.967c-.336 0-.624-.12-.863-.359a1.164 1.164 0 0 1-.359-.853M103.036 45.974h4.53a2.16 2.16 0 0 0-.54-1.332 1.843 1.843 0 0 0-.706-.493 2.593 2.593 0 0 0-1.015-.188c-.682 0-1.218.206-1.61.617-.39.41-.61.876-.66 1.396m-1.872.651c0-.78.174-1.497.523-2.148a3.958 3.958 0 0 1 1.482-1.55 4.08 4.08 0 0 1 2.137-.574c.94 0 1.745.262 2.414.784.668.522 1.13 1.229 1.382 2.12.137.467.206.83.206 1.088a.84.84 0 0 1-.26.614.85.85 0 0 1-.622.26h-5.373c.06.596.32 1.094.78 1.495.46.4 1.055.6 1.787.6.654 0 1.265-.137 1.832-.41a.923.923 0 0 1 .37-.077.76.76 0 0 1 .525.215.686.686 0 0 1 .235.528c0 .22-.112.42-.338.602a2.523 2.523 0 0 1-.846.429c-.338.104-.68.184-1.023.239a6.002 6.002 0 0 1-.937.082c-1.238 0-2.26-.397-3.066-1.192-.806-.794-1.208-1.83-1.208-3.105M112.427 48.25c0 .424.161.766.486 1.027.323.261.73.392 1.218.392.4 0 .77-.07 1.111-.21.34-.14.61-.346.807-.615v-1.22a1.843 1.843 0 0 0-.807-.603 2.942 2.942 0 0 0-1.111-.206c-.494 0-.902.13-1.223.388-.32.258-.481.607-.481 1.047m-1.857-.033c0-.45.086-.85.257-1.2.172-.349.398-.627.68-.833.282-.206.588-.361.916-.466a3.336 3.336 0 0 1 1.016-.157c.55 0 1.05.09 1.503.268.453.18.822.439 1.107.78v-1.2c0-.446-.173-.798-.518-1.058-.346-.26-.802-.39-1.367-.39-.737 0-1.385.18-1.945.537a.735.735 0 0 1-.375.107.723.723 0 0 1-.496-.198.655.655 0 0 1-.22-.512c0-.148.046-.277.14-.387.298-.374.755-.66 1.373-.858a5.914 5.914 0 0 1 1.811-.297c.471 0 .905.054 1.3.161.394.107.752.272 1.073.495.32.222.572.53.756.924.184.393.275.853.275 1.381v4.61c0 .242-.089.451-.267.627a.865.865 0 0 1-.628.264h-.098c-.17 0-.348-.069-.534-.206-.187-.138-.28-.344-.28-.619v-.148a2.907 2.907 0 0 1-1.127.8 3.87 3.87 0 0 1-1.483.28 3.17 3.17 0 0 1-1.936-.672 2.374 2.374 0 0 1-.676-.853 2.657 2.657 0 0 1-.257-1.18M120.142 49.924v-6.59c0-.241.088-.447.264-.618a.923.923 0 0 1 .669-.256c.236 0 .441.09.615.27.173.178.26.39.26.634v.435c.637-.892 1.287-1.339 1.947-1.339.236 0 .428.076.574.226.145.151.218.343.218.576 0 .273-.081.494-.243.665-.163.17-.373.273-.632.307-.83.076-1.452.406-1.865.989v4.709c0 .24-.088.447-.263.621a.861.861 0 0 1-.628.262h-.033a.843.843 0 0 1-.623-.264.863.863 0 0 1-.26-.627M126.018 49.924v-6.59c0-.241.088-.447.264-.618a.923.923 0 0 1 .668-.256.84.84 0 0 1 .615.26c.173.174.26.378.26.615v.338c.308-.369.714-.68 1.217-.936a3.621 3.621 0 0 1 1.663-.384c.869 0 1.525.227 1.968.68.442.454.664 1.102.664 1.943v4.948a.85.85 0 0 1-.268.627.89.89 0 0 1-.648.264.86.86 0 0 1-.631-.26.86.86 0 0 1-.26-.63v-4.29c0-.599-.142-1.027-.425-1.286-.283-.258-.69-.388-1.217-.388-.424 0-.821.105-1.192.314-.372.209-.662.464-.871.767v4.882c0 .242-.088.451-.264.627a.877.877 0 0 1-.644.264.862.862 0 0 1-.64-.264.863.863 0 0 1-.26-.627M135.615 49.924v-6.59c0-.241.088-.447.264-.618a.923.923 0 0 1 .668-.256.84.84 0 0 1 .615.26.84.84 0 0 1 .26.615v6.59c0 .241-.088.45-.264.626a.877.877 0 0 1-.644.264.862.862 0 0 1-.64-.264.863.863 0 0 1-.26-.627m-.214-9.476c0-.302.109-.56.326-.775a1.08 1.08 0 0 1 .788-.322c.309 0 .571.107.788.322.218.214.327.473.327.775 0 .313-.11.578-.327.792a1.08 1.08 0 0 1-.788.322 1.08 1.08 0 0 1-.788-.322 1.069 1.069 0 0 1-.326-.792M139.7 49.924v-6.59c0-.241.087-.447.264-.618a.923.923 0 0 1 .668-.256.84.84 0 0 1 .615.26c.173.174.26.378.26.615v.338c.308-.369.713-.68 1.217-.936a3.62 3.62 0 0 1 1.663-.384c.869 0 1.525.227 1.968.68.442.454.664 1.102.664 1.943v4.948a.85.85 0 0 1-.268.627.89.89 0 0 1-.648.264.86.86 0 0 1-.631-.26.86.86 0 0 1-.26-.63v-4.29c0-.599-.142-1.027-.425-1.286-.284-.258-.69-.388-1.217-.388-.424 0-.821.105-1.193.314a2.56 2.56 0 0 0-.87.767v4.882c0 .242-.089.451-.264.627a.877.877 0 0 1-.644.264.862.862 0 0 1-.64-.264.863.863 0 0 1-.26-.627M151.273 44.669c-.415.47-.623 1.093-.623 1.866 0 .772.208 1.395.623 1.866.415.471.97.707 1.663.707.407 0 .804-.104 1.192-.313.388-.208.681-.468.88-.78v-2.977c-.199-.306-.492-.563-.88-.768a2.519 2.519 0 0 0-1.192-.309c-.693 0-1.248.236-1.663.708m-2.48 1.866c0-1.3.334-2.323 1.003-3.067.668-.743 1.54-1.115 2.612-1.115.506 0 .983.114 1.432.343.448.228.837.554 1.167.977v-.322c0-.247.088-.457.263-.63a.908.908 0 0 1 .665-.26c.236 0 .441.087.617.263a.86.86 0 0 1 .262.627v6.928c0 .571-.082 1.079-.247 1.521-.165.443-.381.802-.648 1.077-.267.275-.589.5-.965.676a4.634 4.634 0 0 1-1.135.367c-.38.069-.784.103-1.213.103-.627 0-1.23-.078-1.807-.236-.578-.157-1.018-.41-1.32-.757a.794.794 0 0 1-.157-.463c0-.216.077-.396.23-.542a.777.777 0 0 1 .555-.22c.148 0 .283.033.404.097.568.342 1.268.513 2.1.513.308 0 .596-.036.863-.108a2.63 2.63 0 0 0 .76-.342c.24-.157.429-.379.566-.665.138-.287.207-.627.207-1.02v-.915a3.569 3.569 0 0 1-1.16.992c-.448.24-.928.359-1.44.359-1.072 0-1.943-.369-2.61-1.107-.67-.738-1.004-1.763-1.004-3.074M165.982 46.798h4.01l-1.996-5.319-2.014 5.32zm-3.226 2.929c0-.143.03-.267.09-.371l3.516-8.942c.126-.324.333-.582.618-.774.287-.192.603-.289.95-.289h.082c.33 0 .641.088.933.264.313.198.539.464.676.8l3.532 8.94c.044.155.066.278.066.372 0 .277-.102.527-.305.751a1.002 1.002 0 0 1-.776.337c-.214 0-.411-.061-.59-.183a1.06 1.06 0 0 1-.392-.482l-.594-1.578h-5.132l-.611 1.578a.95.95 0 0 1-.384.482 1.064 1.064 0 0 1-.598.183 1.02 1.02 0 0 1-.776-.324 1.077 1.077 0 0 1-.305-.764zM176.644 48.234c.198.296.492.55.883.762.39.212.784.318 1.18.318.687 0 1.24-.25 1.658-.75.418-.5.628-1.147.628-1.939 0-.78-.21-1.42-.628-1.917-.417-.498-.97-.747-1.658-.747-.396 0-.79.105-1.18.314-.391.209-.685.464-.883.767v3.192zm-1.807 4.816v-9.715c0-.242.088-.448.264-.619a.923.923 0 0 1 .668-.256.84.84 0 0 1 .615.26c.173.174.26.378.26.615v.321a3.28 3.28 0 0 1 1.147-.956c.456-.231.943-.347 1.46-.347 1.074 0 1.942.383 2.604 1.147.663.764.994 1.806.994 3.125 0 1.325-.332 2.373-.998 3.142-.665.77-1.532 1.155-2.6 1.155-.511 0-.991-.112-1.44-.338a3.389 3.389 0 0 1-1.167-.982v3.448a.83.83 0 0 1-.268.615.889.889 0 0 1-.64.26.874.874 0 0 1-.635-.26.834.834 0 0 1-.264-.615zM186.422 48.234c.198.296.493.55.884.762.39.212.783.318 1.18.318.687 0 1.24-.25 1.658-.75.418-.5.627-1.147.627-1.939 0-.78-.209-1.42-.627-1.917-.418-.498-.971-.747-1.658-.747-.397 0-.79.105-1.18.314-.391.209-.686.464-.884.767v3.192zm-1.807 4.816v-9.715c0-.242.088-.448.264-.619a.923.923 0 0 1 .669-.256.84.84 0 0 1 .614.26.84.84 0 0 1 .26.615v.321a3.278 3.278 0 0 1 2.608-1.303c1.073 0 1.941.383 2.604 1.147s.994 1.806.994 3.125c0 1.325-.333 2.373-.998 3.142-.665.77-1.532 1.155-2.6 1.155-.512 0-.992-.112-1.44-.338a3.388 3.388 0 0 1-1.168-.982v3.448a.83.83 0 0 1-.268.615.889.889 0 0 1-.64.26.874.874 0 0 1-.635-.26.834.834 0 0 1-.264-.615z"/>
    </g>
</svg>
