<svg width="24" height="24" viewBox="0 0 24 24" fill="none" xmlns="http://www.w3.org/2000/svg">
<path fill-rule="evenodd" clip-rule="evenodd" d="M12 23C18.0751 23 23 18.0751 23 12C23 5.92487 18.0751 1 12 1C5.92487 1 1 5.92487 1 12C1 18.0751 5.92487 23 12 23ZM11.3755 5.3999C10.5053 5.3999 9.7998 6.05457 9.7998 6.86215V13.0527C9.7998 13.3668 9.93903 13.6507 10.1633 13.8542L10.164 13.8548L13.739 17.0979C14.37 17.6541 15.3673 17.6302 15.9666 17.0446C16.5659 16.4591 16.5402 15.5335 15.9092 14.9774L13.0998 12.4424V6.86215C13.0998 6.05457 12.2457 5.3999 11.3755 5.3999Z" fill="#8C69FF"/>
<g opacity="0.3">
<path d="M9.7998 6.86215C9.7998 6.05457 10.5053 5.3999 11.3755 5.3999C12.2457 5.3999 13.0998 6.05457 13.0998 6.86215V14.1734H11.0074C10.3405 14.1734 9.7998 13.6717 9.7998 13.0527V6.86215Z" fill="#8C69FF"/>
<path d="M15.9092 14.9774C16.5402 15.5335 16.5659 16.4591 15.9666 17.0446C15.3673 17.6302 14.37 17.6541 13.739 17.0979L10.1633 13.8542L11.9998 11.4499L15.9092 14.9774Z" fill="#8C69FF"/>
</g>
</svg>
