<svg width="72" height="72" viewBox="0 0 72 72" fill="none" xmlns="http://www.w3.org/2000/svg">
<circle cx="36" cy="36" r="36" fill="#8C69FF"/>
<path d="M52.6455 28.4778C51.5062 28.9758 50.2815 29.3111 48.9964 29.4622C50.3086 28.6887 51.3165 27.4629 51.79 26.0022C50.5629 26.7186 49.2029 27.2394 47.7552 27.5201C46.5978 26.3045 44.9449 25.5449 43.1178 25.5449C39.0158 25.5449 36.0016 29.3124 36.9281 33.2233C31.6493 32.9629 26.9681 30.4733 23.8339 26.6894C22.1693 29.5004 22.9706 33.1776 25.799 35.0398C24.759 35.0066 23.7784 34.726 22.9229 34.2573C22.8532 37.1546 24.9629 39.8653 28.0184 40.4686C27.1242 40.7075 26.1448 40.7632 25.1487 40.5753C25.9564 43.0598 28.3022 44.8674 31.0842 44.9182C28.4132 46.9797 25.0481 47.9007 21.6777 47.5094C24.4893 49.2839 27.83 50.3191 31.4171 50.3191C43.2132 50.3191 49.8777 40.5118 49.4751 31.7156C50.7165 30.8328 51.7939 29.7315 52.6455 28.4778Z" fill="white"/>
</svg>
