<svg width="72" height="72" viewBox="0 0 72 72" fill="none" xmlns="http://www.w3.org/2000/svg">
<circle cx="36" cy="36" r="36" fill="#8C69FF"/>
<mask id="path-2-inside-1_2165_36836" fill="white">
<path fill-rule="evenodd" clip-rule="evenodd" d="M36 52.2C44.9471 52.2 52.2001 44.947 52.2001 36C52.2001 27.053 44.9471 19.8 36 19.8C27.053 19.8 19.8 27.053 19.8 36C19.8 38.8374 20.5295 41.5044 21.8111 43.8237L20.3826 52.2079L29.1053 50.6638C31.1973 51.6491 33.5344 52.2 36 52.2Z"/>
</mask>
<path fill-rule="evenodd" clip-rule="evenodd" d="M36 52.2C44.9471 52.2 52.2001 44.947 52.2001 36C52.2001 27.053 44.9471 19.8 36 19.8C27.053 19.8 19.8 27.053 19.8 36C19.8 38.8374 20.5295 41.5044 21.8111 43.8237L20.3826 52.2079L29.1053 50.6638C31.1973 51.6491 33.5344 52.2 36 52.2Z" fill="#8C69FF"/>
<path d="M21.8111 43.8237L23.7827 44.1596L23.9003 43.4693L23.5616 42.8564L21.8111 43.8237ZM20.3826 52.2079L18.411 51.872L17.9339 54.6724L20.7312 54.1773L20.3826 52.2079ZM29.1053 50.6638L29.9575 48.8544L29.3825 48.5836L28.7567 48.6944L29.1053 50.6638ZM50.2001 36C50.2001 43.8424 43.8425 50.2 36 50.2V54.2C46.0516 54.2 54.2001 46.0516 54.2001 36H50.2001ZM36 21.8C43.8425 21.8 50.2001 28.1575 50.2001 36H54.2001C54.2001 25.9484 46.0516 17.8 36 17.8V21.8ZM21.8 36C21.8 28.1575 28.1576 21.8 36 21.8V17.8C25.9485 17.8 17.8 25.9484 17.8 36H21.8ZM23.5616 42.8564C22.4395 40.8257 21.8 38.4905 21.8 36H17.8C17.8 39.1842 18.6195 42.1831 20.0606 44.791L23.5616 42.8564ZM22.3542 52.5438L23.7827 44.1596L19.8395 43.4878L18.411 51.872L22.3542 52.5438ZM28.7567 48.6944L20.034 50.2385L20.7312 54.1773L29.4539 52.6332L28.7567 48.6944ZM36 50.2C33.8351 50.2 31.7886 49.7169 29.9575 48.8544L28.2531 52.4731C30.6061 53.5814 33.2336 54.2 36 54.2V50.2Z" fill="white" mask="url(#path-2-inside-1_2165_36836)"/>
<path d="M29.9337 28.8C29.0154 28.8 28.8082 29.6278 28.8193 30.0418C28.6819 31.742 29.2182 35.9355 32.4632 39.1073C36.5195 43.0721 40.5367 43.1055 41.7792 43.1946C42.7732 43.2659 43.1406 42.6118 43.2 42.2758V39.5361C43.2 38.4714 42.3606 38.2646 41.9408 38.2943C41.4821 38.2943 40.3896 38.2197 39.6898 37.9212C38.99 37.6227 38.373 38.0456 38.152 38.2943L37.4699 38.809C37.0242 39.1453 36.4203 39.2087 35.9487 38.9098C34.5158 38.0017 33.5693 36.8339 33.0568 35.9842C32.7949 35.55 32.8678 35.0107 33.1738 34.6063C33.4412 34.2528 33.7384 33.8679 33.9398 33.6279C34.3739 33.1105 34.1686 32.482 34.0793 32.2087L34.0791 32.2079C33.9899 31.9351 33.7615 30.9216 33.728 29.897C33.7013 29.0773 33.026 28.8241 32.6917 28.8H29.9337Z" fill="white"/>
</svg>
